<?xml version="1.0" standalone="no"?><!-- Generator: Gravit.io --><svg xmlns="http://www.w3.org/2000/svg" xmlns:xlink="http://www.w3.org/1999/xlink" style="isolation:isolate" viewBox="0 0 32 32" width="32" height="32"><defs><clipPath id="_clipPath_tdyHUvRGX6lUPrcHH2AZwux2woZWziXF"><rect width="32" height="32"/></clipPath></defs><g clip-path="url(#_clipPath_tdyHUvRGX6lUPrcHH2AZwux2woZWziXF)"><rect x="1.85" y="5.875" width="28.301" height="20.25" transform="matrix(1,0,0,1,0,0)" fill="none"/><path d=" M 30.086 7.069 C 30.177 6.734 30.055 6.378 29.78 6.166 C 29.505 5.955 29.129 5.93 28.828 6.104 C 25.806 7.849 19.799 11.317 17.459 12.668 C 17.203 12.816 17.016 13.059 16.94 13.345 C 16.863 13.63 16.903 13.935 17.051 14.191 C 18.402 16.531 21.87 22.537 23.615 25.56 C 23.789 25.861 24.126 26.027 24.471 25.982 C 24.815 25.937 25.098 25.688 25.187 25.353 C 26.322 21.12 28.952 11.302 30.086 7.069 Z " fill-rule="evenodd" fill="rgb(255,255,255)"/><path d=" M 1.981 7.069 C 1.891 6.734 2.013 6.378 2.288 6.166 C 2.563 5.955 2.939 5.93 3.24 6.104 C 6.262 7.849 12.269 11.317 14.609 12.668 C 14.865 12.816 15.052 13.059 15.128 13.345 C 15.205 13.63 15.165 13.935 15.017 14.191 C 13.666 16.531 10.198 22.537 8.453 25.56 C 8.279 25.861 7.942 26.027 7.597 25.982 C 7.253 25.937 6.97 25.688 6.881 25.353 C 5.746 21.12 3.116 11.302 1.981 7.069 Z " fill-rule="evenodd" fill="rgb(255,255,255)"/></g></svg>